<?xml version="1.0" encoding="utf-8"?>
<!-- Generator: Adobe Illustrator 23.0.1, SVG Export Plug-In . SVG Version: 6.00 Build 0)  -->
<svg version="1.1" id="Capa_1" xmlns="http://www.w3.org/2000/svg" xmlns:xlink="http://www.w3.org/1999/xlink" x="0px"
	y="0px" viewBox="0 0 283.5 283.5" style="enable-background:new 0 0 283.5 283.5;" xml:space="preserve">
	<style type="text/css">
		.st0 {
			fill: #F4C534;
		}

		.st1 {
			fill: #3E4347;
		}

		.st2 {
			fill: #5A5F63;
		}
	</style>
	<g>
		<path class="st0" d="M283.5,141.7c0,78.3-63.5,141.7-141.7,141.7C63.4,283.5,0,220,0,141.7C0,63.5,63.4,0,141.7,0
		C220,0,283.5,63.5,283.5,141.7z" />
		<g>
			<path class="st1" d="M112.7,113.8c-1.8,0-3.5-0.9-4.5-2.3C98.3,97.6,84.9,88.8,66,83.7c-2.9-0.8-4.7-3.8-3.9-6.8
			c0.8-3,3.8-4.7,6.8-3.9c18.3,4.9,32.6,13.4,43.3,25.7l7.8-12c1.6-2.6,5.1-3.3,7.6-1.6c2.6,1.7,3.3,5.1,1.6,7.7l-12,18.5
			c-1,1.5-2.7,2.5-4.5,2.5C112.7,113.8,112.7,113.8,112.7,113.8z" />
			<ellipse class="st1" cx="89.8" cy="138.7" rx="22.4" ry="25.4" />
			<path class="st1" d="M170.8,113.8c0,0-0.1,0-0.1,0c-1.8,0-3.5-1-4.5-2.5l-12-18.5c-1.7-2.6-0.9-6,1.6-7.7c2.6-1.7,6-0.9,7.7,1.6
			l7.8,12c10.8-12.4,25-20.8,43.4-25.7c3-0.8,6,0.9,6.8,3.9c0.8,2.9-1,6-3.9,6.8c-18.9,5.1-32.3,13.9-42.1,27.8
			C174.3,112.9,172.6,113.8,170.8,113.8z" />
			<ellipse class="st1" cx="193.7" cy="138.7" rx="22.4" ry="25.4" />
			<path class="st1" d="M182.5,222.2c-10.4-10.9-25.4-17.2-41-17.2s-30.6,6.3-41,17.2c-3.4,3.5-9,3.6-12.5,0.3
			c-3.5-3.4-3.7-9-0.3-12.5c13.8-14.4,33.4-22.6,53.8-22.6c20.4,0,40,8.3,53.8,22.6c3.4,3.5,3.3,9.1-0.3,12.5
			C191.5,225.9,185.9,225.8,182.5,222.2z" />
		</g>
		<g>
			<path class="st2" d="M206.1,135.2c-1.9,0.8-4.3-0.8-5.5-3.6c-1.1-2.8-0.5-5.6,1.4-6.4c2-0.8,4.4,0.8,5.5,3.6
			C208.7,131.6,208,134.4,206.1,135.2z" />
			<path class="st2" d="M101.3,135.2c-1.9,0.8-4.3-0.8-5.5-3.6c-1.1-2.8-0.5-5.6,1.5-6.4c2-0.8,4.4,0.8,5.5,3.6
			C103.9,131.6,103.2,134.4,101.3,135.2z" />
		</g>
	</g>
</svg>