<?xml version="1.0" encoding="utf-8"?>
<!-- Generator: Adobe Illustrator 23.0.1, SVG Export Plug-In . SVG Version: 6.00 Build 0)  -->
<svg version="1.1" id="Capa_1" xmlns="http://www.w3.org/2000/svg" xmlns:xlink="http://www.w3.org/1999/xlink" x="0px"
	y="0px" viewBox="0 0 283.5 283.5" style="enable-background:new 0 0 283.5 283.5;" xml:space="preserve">
	<style type="text/css">
		.st0 {
			fill: #F4C534;
		}

		.st1 {
			fill: #3E4347;
		}

		.st2 {
			fill: #E9B02C;
		}
	</style>
	<g>
		<circle class="st0" cx="141.7" cy="141.7" r="141.7" />
		<g>
			<path class="st1" d="M184,213c0,4.1-3.3,7.4-7.4,7.4h-69.9c-4.1,0-7.4-3.3-7.4-7.4c0-4.1,3.3-7.4,7.4-7.4h69.9
			C180.7,205.7,184,209,184,213z" />
			<path class="st1" d="M61.9,144.9c3.5-2,13.7,8.9,29.8,9.5c16.7,0.6,26.3-11.6,29.8-9.5c4.3,1.5-1.6,29.6-29.8,29.8
			C63.5,174.5,57.6,146.4,61.9,144.9z" />
		</g>
		<path class="st2" d="M55.3,132.5c-3.2-0.5-5.4-3.5-4.9-6.8c0.5-3.2,3.5-5.4,6.8-4.9c33.2,5.3,43.3-18.4,43.4-18.6
		c1.2-3,4.7-4.5,7.7-3.2c3,1.2,4.5,4.7,3.2,7.7C104.8,123,83.9,137.1,55.3,132.5z" />
		<path class="st1" d="M221.6,144.9c-3.5-2-13.7,8.9-29.8,9.5c-16.7,0.6-26.3-11.6-29.8-9.5c-4.3,1.5,1.6,29.6,29.8,29.8
		C220,174.5,225.9,146.4,221.6,144.9z" />
		<path class="st2" d="M172,106.7c-1.2-3,0.2-6.5,3.2-7.7c3-1.2,6.4,0.2,7.7,3.2c0.4,1.1,10.6,23.9,43.4,18.7
		c3.3-0.5,6.3,1.7,6.8,4.9c0.5,3.2-1.7,6.3-4.9,6.8C199.8,137.1,178.7,123.1,172,106.7z" />
	</g>
</svg>