<?xml version="1.0" encoding="utf-8"?>
<!-- Generator: Adobe Illustrator 23.0.1, SVG Export Plug-In . SVG Version: 6.00 Build 0)  -->
<svg version="1.1" id="Capa_1" xmlns="http://www.w3.org/2000/svg" xmlns:xlink="http://www.w3.org/1999/xlink" x="0px"
	y="0px" viewBox="0 0 283.5 283.5" style="enable-background:new 0 0 283.5 283.5;" xml:space="preserve">
	<style type="text/css">
		.st0 {
			fill: #F4C534;
		}

		.st1 {
			fill: #3E4347;
		}

		.st2 {
			fill: #5A5F63;
		}
	</style>
	<g>
		<circle class="st0" cx="141.7" cy="141.7" r="141.7" />
		<path class="st1" d="M141.7,232.8c-41.4,0-77.6-28.1-87.8-68.3c-0.8-3.2,1.1-6.4,4.3-7.2c3.1-0.8,6.4,1.1,7.2,4.3
		c8.9,35,40.3,59.4,76.4,59.4s67.5-24.4,76.4-59.4c0.8-3.2,4-5.1,7.2-4.3c3.2,0.8,5.1,4,4.3,7.2
		C219.3,204.8,183.2,232.8,141.7,232.8z" />
		<ellipse class="st1" cx="96" cy="122" rx="21.7" ry="25.8" />
		<path class="st2" d="M105.8,116.4c-1.7,1.3-4.5,0.7-6.3-1.5c-1.8-2.2-1.9-5.1-0.2-6.4c1.7-1.4,4.5-0.7,6.2,1.4
		C107.4,112.2,107.4,115,105.8,116.4z" />
		<ellipse class="st1" cx="187.5" cy="122" rx="21.7" ry="25.8" />
		<path class="st2" d="M197.3,116.4c-1.7,1.3-4.5,0.7-6.3-1.5c-1.8-2.2-1.9-5.1-0.2-6.4c1.7-1.4,4.5-0.7,6.2,1.4
		C198.9,112.2,198.9,115,197.3,116.4z" />
	</g>
</svg>