<?xml version="1.0" encoding="utf-8"?>
<!-- Generator: Adobe Illustrator 23.0.1, SVG Export Plug-In . SVG Version: 6.00 Build 0)  -->
<svg version="1.1" id="Capa_1" xmlns="http://www.w3.org/2000/svg" xmlns:xlink="http://www.w3.org/1999/xlink" x="0px"
	y="0px" viewBox="0 0 283.5 283.5" style="enable-background:new 0 0 283.5 283.5;" xml:space="preserve">
	<style type="text/css">
		.st0 {
			fill: #F4C534;
		}

		.st1 {
			fill: #3E4347;
		}

		.st2 {
			fill: #E24B4B;
		}

		.st3 {
			fill: #D03F3F;
		}

		.st4 {
			opacity: 0.2;
		}

		.st5 {
			fill: #FFFFFF;
		}
	</style>
	<g>
		<circle class="st0" cx="141.7" cy="141.7" r="141.7" />
		<path class="st1" d="M215,171.2c12.5,3.4-7.5,69.6-73.3,70.1C76,240.9,56,174.6,68.4,171.2c10-4.9,36.7,22.3,73.3,22.3
		C178.9,193.5,205.1,166.3,215,171.2z" />
		<path class="st2" d="M96,142.2c-0.8,0.9-2.1,1.2-3.1,0.6c-8-4.2-40-22.1-43.1-38.9c-1.9-10.6,5-20.7,15.6-22.7
		c7.6-1.4,15,1.8,19.3,7.8c1.8-7.1,7.6-12.8,15.2-14.1c10.6-1.9,20.7,5,22.6,15.6C125.6,107.2,101.9,135.4,96,142.2z" />
		<path class="st3" d="M99.3,138.2c-1.4,1.7-2.5,3-3.4,4c-0.8,0.9-2.1,1.2-3.1,0.6c-8-4.2-40-22.1-43.1-38.9
		c-1.8-9.5,3.7-18.7,12.5-21.8c-4.5,4.4-6.8,10.9-5.6,17.5C59.7,116.1,90.8,133.7,99.3,138.2z" />
		<g class="st4">

			<ellipse transform="matrix(0.9308 -0.3654 0.3654 0.9308 -25.4103 46.0135)" class="st5" cx="108.9" cy="90.1"
				rx="5.2" ry="7.7" />
		</g>
		<path class="st2"
			d="M184.2,142.2c0.8,0.9,2.1,1.2,3.1,0.6c8-4.2,40-22.1,43.1-38.9c1.9-10.6-5-20.7-15.6-22.7
		c-7.6-1.4-15,1.8-19.3,7.8c-1.8-7.1-7.6-12.8-15.2-14.1c-10.6-1.9-20.7,5-22.6,15.6C154.6,107.2,178.3,135.4,184.2,142.2z" />
		<path class="st3" d="M180.9,138.2c1.4,1.7,2.5,3,3.4,4c0.8,0.9,2.1,1.2,3.1,0.6c8-4.2,40-22.1,43.1-38.9
		c1.8-9.5-3.7-18.7-12.5-21.8c4.5,4.4,6.8,10.9,5.6,17.5C220.5,116.1,189.4,133.7,180.9,138.2z" />
		<g class="st4">

			<ellipse transform="matrix(0.3654 -0.9308 0.9308 0.3654 24.7959 216.6743)" class="st5" cx="171.3" cy="90.2"
				rx="7.7" ry="5.2" />
		</g>
		<path class="st2" d="M141.7,241.3c12.7-0.1,23.7-2.7,33.1-6.7c-2.1-6.2-5.9-11.7-11-15.8c-4-3.3-9.6-3.9-14.5-2.3
		c-2.9,0.9-6.1,1.5-9.7,1.5c-2.8,0-5.3-0.4-7.7-0.9c-5.4-1.4-11,0.2-14.9,4.2c-3.7,3.7-6.6,8.3-8.3,13.4
		C118.1,238.7,129,241.3,141.7,241.3z" />
	</g>
</svg>